<?xml version="1.0" encoding="UTF-8" standalone="no" ?>
<!DOCTYPE svg PUBLIC "-//W3C//DTD SVG 1.1//EN" "http://www.w3.org/Graphics/SVG/1.1/DTD/svg11.dtd">
<svg xmlns="http://www.w3.org/2000/svg" xmlns:xlink="http://www.w3.org/1999/xlink" version="1.1" width="500" height="500" viewBox="0 0 500 500" xml:space="preserve">
<desc>Created with Fabric.js 4.6.0</desc>
<defs>
</defs>
<g transform="matrix(1 0 0 1 250 250)" id="bAeEdvqocxdk1kMJdn493"  >
<path style="stroke: rgb(106,118,66); stroke-width: 0; stroke-dasharray: none; stroke-linecap: butt; stroke-dashoffset: 0; stroke-linejoin: miter; stroke-miterlimit: 4; fill: rgb(62,72,85); fill-rule: nonzero; opacity: 1;" vector-effect="non-scaling-stroke"  transform=" translate(-210, -210)" d="M 210 0 C 325.92 0 420 94.08 420 210 C 420 325.92 325.92 420 210 420 C 94.08 420 0 325.92 0 210 C 0 94.08 94.08 0 210 0 z" stroke-linecap="round" />
</g>
<g transform="matrix(1 0 0 1 250 250)" id="bxp40FLiGwEYGQ94kti7D"  >
<path style="stroke: rgb(176,254,240); stroke-width: 0; stroke-dasharray: none; stroke-linecap: butt; stroke-dashoffset: 0; stroke-linejoin: miter; stroke-miterlimit: 4; fill: rgb(255,255,255); fill-rule: nonzero; opacity: 1;" vector-effect="non-scaling-stroke"  transform=" translate(-120, -120)" d="M 120 0 C 186.24 0 240 53.76 240 120 C 240 186.24 186.24 240 120 240 C 53.760000000000005 240 0 186.24 0 120 C 0 53.760000000000005 53.76 0 120 0 z" stroke-linecap="round" />
</g>
<g transform="matrix(1 0 0 1 106.26 355.76)" id="kQhnaCcRE9f4w_v7S_Pjk"  >
<path style="stroke: rgb(84,133,51); stroke-width: 0; stroke-dasharray: none; stroke-linecap: butt; stroke-dashoffset: 0; stroke-linejoin: miter; stroke-miterlimit: 4; fill: rgb(104,235,202); fill-rule: nonzero; opacity: 1;" vector-effect="non-scaling-stroke"  transform=" translate(-90, -90)" d="M 89.99999 0 C 139.67999 0 179.99998 40.32 179.99998 89.99999 C 179.99998 139.67999 139.67998 179.99998 89.99999 179.99998 C 40.31999 179.99998 0 139.67998 0 89.99999 C 0 40.31999 40.32 0 89.99999 0 z" stroke-linecap="round" />
</g>
</svg>